<svg xmlns="http://www.w3.org/2000/svg" viewBox="0 0 513 342">
  <path fill="#239F40" d="M0 0h513v114H0z"/>
  <path fill="#FFF" d="M0 114h513v114H0z"/>
  <path fill="#DA0000" d="M0 228h513v114H0z"/>
  <circle cx="256.5" cy="171" r="36" fill="#EDAB00"/>
  <g fill="#EDAB00">
    <rect x="251" y="95" width="11" height="30"/>
    <rect x="251" y="217" width="11" height="30"/>
    <rect x="180" y="165.5" width="30" height="11"/>
    <rect x="303" y="165.5" width="30" height="11"/>
    <rect x="205" y="119" width="11" height="30" transform="rotate(-45 210.5 134)"/>
    <rect x="297" y="119" width="11" height="30" transform="rotate(45 302.5 134)"/>
    <rect x="205" y="193" width="11" height="30" transform="rotate(45 210.5 208)"/>
    <rect x="297" y="193" width="11" height="30" transform="rotate(-45 302.5 208)"/>
  </g>
</svg>
