<svg xmlns="http://www.w3.org/2000/svg" fill="none" viewBox="0 0 513 342"><g clip-path="url(#a)"><path fill="#fff" d="M0 0h513v342H0V0Z"/><path fill="#D80027" d="M0 0h513v26.3H0V0Zm0 52.6h513v26.3H0V52.6Zm0 52.6h513v26.3H0v-26.3Zm0 52.6h513v26.3H0v-26.3Zm0 52.7h513v26.3H0v-26.3Zm0 52.6h513v26.3H0v-26.3Zm0 52.6h513V342H0v-26.3Z"/><path fill="#2E52B2" d="M0 0h256.5v184.1H0V0Z"/><path fill="#fff" d="m47.8002 138.9-4-12.8-4.4 12.8h-13.2l10.7 7.7-4 12.8 10.9-7.9 10.6 7.9-4.1-12.8 10.9-7.7h-13.4Zm56.2998 0-4.1-12.8-4.1998 12.8h-13.2l10.7 7.7-4 12.8L100 151.5l10.8 7.9-4-12.8 10.7-7.7h-13.4Zm56.5 0-4.3-12.8-4 12.8h-13.5l11 7.7-4.2 12.8 10.7-7.9 11 7.9-4.2-12.8 10.7-7.7h-13.2Zm56.2 0-4-12.8-4.2 12.8h-13.3l10.8 7.7-4 12.8 10.7-7.9 10.8 7.9-4.3-12.8 11-7.7h-13.5ZM100 75.3002l-4.1998 12.8h-13.2l10.7 7.9-4 12.5998L100 100.8l10.8 7.8-4-12.5998 10.7-7.9h-13.4l-4.1-12.8Zm-56.1998 0-4.4 12.8h-13.2l10.7 7.9-4 12.5998 10.9-7.8 10.6 7.8-4.1-12.5998 10.9-7.9h-13.4l-4-12.8Zm112.4998 0-4 12.8h-13.5l11 7.9-4.2 12.5998 10.7-7.8 11 7.8-4.2-12.5998 10.7-7.9h-13.2l-4.3-12.8Zm56.5 0-4.2 12.8h-13.3l10.8 7.9-4 12.5998 10.7-7.8 10.8 7.8-4.3-12.5998 11-7.9h-13.5l-4-12.8Zm-168.9998-50.6-4.4 12.6h-13.2l10.7 7.9-4 12.7 10.9-7.9 10.6 7.9-4.1-12.7 10.9-7.9h-13.4l-4-12.6Zm56.1998 0-4.1998 12.6h-13.2l10.7 7.9-4 12.7 10.6998-7.9 10.8 7.9-4-12.7 10.7-7.9h-13.4l-4.1-12.6Zm56.3 0-4 12.6h-13.5l11 7.9-4.2 12.7 10.7-7.9 11 7.9-4.2-12.7 10.7-7.9h-13.2l-4.3-12.6Zm56.5 0-4.2 12.6h-13.3l10.8 7.9-4 12.7 10.7-7.9 10.8 7.9-4.3-12.7 11-7.9h-13.5l-4-12.6Z"/></g><defs><clipPath id="a"><path fill="#fff" d="M0 0h513v342H0z"/></clipPath></defs></svg>